<svg width="139" height="13" viewBox="0 0 139 13" fill="none" xmlns="http://www.w3.org/2000/svg">
<path d="M3.50142 12.5515V2.38246H0V0.278532H9.38381V2.38246H5.77734V12.5515H3.50142Z" fill="white"/>
<path d="M19.4769 12.5515V0.278532H21.7528V12.5515H19.4769ZM11.6162 12.5515V0.278532H13.8922V12.5515H11.6162ZM12.5616 7.50203V5.36303H20.5799V7.50203H12.5616Z" fill="white"/>
<path d="M25.0543 12.5515V0.278532H33.0726V2.3474H27.2952V10.4826H33.1426V12.5515H25.0543ZM26.1047 7.29163V5.25783H32.1797V7.29163H26.1047Z" fill="white"/>
<path d="M41.1424 12.5515V0.278532H46.3595C47.1648 0.278532 47.8418 0.395418 48.3903 0.629188C48.9505 0.862958 49.3707 1.21361 49.6508 1.68115C49.9426 2.137 50.0885 2.69221 50.0885 3.34676C50.0885 4.0247 49.9076 4.59743 49.5458 5.06497C49.184 5.53251 48.6763 5.85395 48.0227 6.02928L48.0052 5.67862C48.5537 5.79551 49.0322 6.0059 49.4407 6.3098C49.8492 6.60201 50.1644 6.9702 50.3861 7.41436C50.6196 7.84684 50.7363 8.3436 50.7363 8.90465C50.7363 9.50076 50.6371 10.0267 50.4386 10.4826C50.2519 10.9384 49.9718 11.3183 49.5983 11.6222C49.2248 11.9261 48.7813 12.1599 48.2678 12.3235C47.7542 12.4755 47.1765 12.5515 46.5346 12.5515H41.1424ZM43.3658 10.5001H46.4295C46.8614 10.5001 47.2232 10.4358 47.515 10.3073C47.8184 10.1787 48.046 9.99168 48.1977 9.74622C48.3611 9.48907 48.4428 9.18517 48.4428 8.83452C48.4428 8.50724 48.3553 8.22671 48.1802 7.99294C48.0168 7.75917 47.7776 7.58385 47.4624 7.46696C47.1473 7.33839 46.7738 7.2741 46.342 7.2741H43.3658V10.5001ZM43.3658 5.31043H46.1494C46.4879 5.31043 46.7797 5.24615 47.0248 5.11757C47.2815 4.989 47.4799 4.81367 47.62 4.59159C47.7601 4.36951 47.8301 4.11236 47.8301 3.82015C47.8301 3.35261 47.6725 2.99026 47.3574 2.73312C47.0423 2.46428 46.5812 2.32986 45.9743 2.32986H43.3658V5.31043Z" fill="white"/>
<path d="M53.0541 12.5514V10.5352V2.29477V0.278507H55.3301V2.29477V10.5352V12.5514H53.0541Z" fill="white"/>
<path d="M57.795 12.5514V0.278507H63.0121C63.8174 0.278507 64.4943 0.395393 65.0429 0.629163C65.6031 0.862933 66.0233 1.21359 66.3034 1.68113C66.5952 2.13698 66.7411 2.69218 66.7411 3.34674C66.7411 4.02467 66.5602 4.59741 66.1984 5.06495C65.8366 5.53249 65.3289 5.85392 64.6753 6.02925L64.6577 5.6786C65.2063 5.79548 65.6848 6.00587 66.0933 6.30977C66.5018 6.60199 66.817 6.97018 67.0387 7.41434C67.2721 7.84681 67.3889 8.34357 67.3889 8.90462C67.3889 9.50074 67.2896 10.0267 67.0912 10.4826C66.9045 10.9384 66.6244 11.3183 66.2509 11.6222C65.8774 11.9261 65.4339 12.1599 64.9204 12.3235C64.4068 12.4755 63.8291 12.5514 63.1871 12.5514H57.795ZM60.0184 10.5001H63.0821C63.514 10.5001 63.8758 10.4358 64.1675 10.3072C64.471 10.1787 64.6986 9.99165 64.8503 9.74619C65.0137 9.48905 65.0954 9.18515 65.0954 8.83449C65.0954 8.50721 65.0079 8.22669 64.8328 7.99292C64.6694 7.75915 64.4302 7.58382 64.115 7.46694C63.7999 7.33836 63.4264 7.27408 62.9946 7.27408H60.0184V10.5001ZM60.0184 5.31041H62.802C63.1405 5.31041 63.4323 5.24612 63.6773 5.11755C63.9341 4.98897 64.1325 4.81365 64.2726 4.59157C64.4126 4.36948 64.4827 4.11234 64.4827 3.82012C64.4827 3.35258 64.3251 2.99024 64.01 2.73309C63.6949 2.46426 63.2338 2.32984 62.6269 2.32984H60.0184V5.31041Z" fill="white"/>
<path d="M69.8482 12.5514V0.278507H72.1241V10.4475H77.7789V12.5514H69.8482Z" fill="white"/>
<path d="M80.3798 12.5514V0.278507H88.3981V2.34737H82.6207V10.4826H88.4681V12.5514H80.3798ZM81.4302 7.29161V5.25781H87.5052V7.29161H81.4302Z" fill="white"/>
<path d="M100.354 12.7268C99.6425 12.7268 98.9889 12.6391 98.3937 12.4638C97.7984 12.2768 97.2615 12.0021 96.783 11.6397C96.3045 11.2774 95.8785 10.8391 95.505 10.3248L96.9931 8.64163C97.565 9.43645 98.1252 9.98581 98.6738 10.2897C99.2223 10.5936 99.8409 10.7456 100.53 10.7456C100.926 10.7456 101.288 10.6871 101.615 10.5702C101.942 10.4417 102.199 10.2722 102.385 10.0618C102.572 9.8397 102.665 9.5884 102.665 9.30788C102.665 9.10917 102.625 8.928 102.543 8.76436C102.473 8.58903 102.362 8.43708 102.21 8.30851C102.058 8.16825 101.872 8.03967 101.65 7.92279C101.428 7.8059 101.177 7.70655 100.897 7.62473C100.617 7.54291 100.308 7.46694 99.9693 7.39681C99.3274 7.26823 98.7672 7.09875 98.2886 6.88836C97.8101 6.66627 97.4074 6.39744 97.0806 6.08185C96.7538 5.75457 96.5146 5.39223 96.3628 4.99482C96.2111 4.58572 96.1352 4.12402 96.1352 3.60973C96.1352 3.09544 96.2461 2.62205 96.4679 2.18958C96.7013 1.7571 97.0164 1.38307 97.4133 1.06748C97.8101 0.751892 98.2711 0.506434 98.7963 0.331106C99.3215 0.155779 99.8876 0.0681152 100.495 0.0681152C101.183 0.0681152 101.796 0.149935 102.333 0.313574C102.881 0.477213 103.36 0.722671 103.768 1.04995C104.189 1.36554 104.533 1.75126 104.801 2.20711L103.296 3.69739C103.062 3.33505 102.8 3.03699 102.508 2.80322C102.216 2.55777 101.901 2.37659 101.562 2.25971C101.224 2.13113 100.868 2.06685 100.495 2.06685C100.074 2.06685 99.7067 2.12529 99.3916 2.24218C99.0881 2.35906 98.8489 2.52854 98.6738 2.75063C98.4987 2.96102 98.4112 3.21817 98.4112 3.52207C98.4112 3.75584 98.4637 3.96623 98.5687 4.15325C98.6738 4.32857 98.8197 4.48637 99.0064 4.62663C99.2048 4.76689 99.4558 4.88962 99.7592 4.99482C100.063 5.10002 100.407 5.19352 100.792 5.27534C101.434 5.40392 102.012 5.57924 102.525 5.80132C103.039 6.01172 103.477 6.26886 103.838 6.57277C104.2 6.86498 104.474 7.20394 104.661 7.58967C104.848 7.9637 104.941 8.38448 104.941 8.85202C104.941 9.65853 104.749 10.354 104.364 10.9384C103.99 11.5112 103.459 11.9553 102.77 12.2709C102.082 12.5748 101.276 12.7268 100.354 12.7268Z" fill="white"/>
<path d="M106.078 12.5514L110.858 0.278507H112.994L117.738 12.5514H115.375L112.749 5.5734C112.69 5.43314 112.609 5.21106 112.504 4.90715C112.41 4.60325 112.305 4.27598 112.188 3.92532C112.072 3.56298 111.967 3.22986 111.873 2.92595C111.78 2.61036 111.71 2.38244 111.663 2.24218L112.101 2.22464C112.031 2.45841 111.949 2.7214 111.856 3.01362C111.762 3.30583 111.663 3.60973 111.558 3.92532C111.453 4.24091 111.348 4.54481 111.243 4.83702C111.15 5.12924 111.062 5.39223 110.98 5.626L108.354 12.5514H106.078ZM108.249 9.74619L109.037 7.76499H114.622L115.462 9.74619H108.249Z" fill="white"/>
<path d="M121.523 12.5514V6.4325L121.645 7.29161L116.691 0.278507H119.352L123.133 5.71366L122.31 5.66106L125.724 0.278507H128.28L123.536 7.48447L123.799 6.29224V12.5514H121.523Z" fill="white"/>
<path d="M133.437 12.7268C132.725 12.7268 132.071 12.6391 131.476 12.4638C130.881 12.2768 130.344 12.0021 129.865 11.6397C129.387 11.2774 128.961 10.8391 128.587 10.3248L130.075 8.64163C130.647 9.43645 131.207 9.98581 131.756 10.2897C132.305 10.5936 132.923 10.7456 133.612 10.7456C134.009 10.7456 134.37 10.6871 134.697 10.5702C135.024 10.4417 135.281 10.2722 135.468 10.0618C135.654 9.8397 135.748 9.5884 135.748 9.30788C135.748 9.10917 135.707 8.928 135.625 8.76436C135.555 8.58903 135.444 8.43708 135.292 8.30851C135.141 8.16825 134.954 8.03967 134.732 7.92279C134.51 7.8059 134.26 7.70655 133.979 7.62473C133.699 7.54291 133.39 7.46694 133.052 7.39681C132.41 7.26823 131.849 7.09875 131.371 6.88836C130.892 6.66627 130.49 6.39744 130.163 6.08185C129.836 5.75457 129.597 5.39223 129.445 4.99482C129.293 4.58572 129.218 4.12402 129.218 3.60973C129.218 3.09544 129.328 2.62205 129.55 2.18958C129.784 1.7571 130.099 1.38307 130.496 1.06748C130.892 0.751892 131.353 0.506434 131.879 0.331106C132.404 0.155779 132.97 0.0681152 133.577 0.0681152C134.265 0.0681152 134.878 0.149935 135.415 0.313574C135.964 0.477213 136.442 0.722671 136.851 1.04995C137.271 1.36554 137.615 1.75126 137.884 2.20711L136.378 3.69739C136.144 3.33505 135.882 3.03699 135.59 2.80322C135.298 2.55777 134.983 2.37659 134.645 2.25971C134.306 2.13113 133.95 2.06685 133.577 2.06685C133.157 2.06685 132.789 2.12529 132.474 2.24218C132.17 2.35906 131.931 2.52854 131.756 2.75063C131.581 2.96102 131.493 3.21817 131.493 3.52207C131.493 3.75584 131.546 3.96623 131.651 4.15325C131.756 4.32857 131.902 4.48637 132.089 4.62663C132.287 4.76689 132.538 4.88962 132.841 4.99482C133.145 5.10002 133.489 5.19352 133.874 5.27534C134.516 5.40392 135.094 5.57924 135.608 5.80132C136.121 6.01172 136.559 6.26886 136.921 6.57277C137.282 6.86498 137.557 7.20394 137.743 7.58967C137.93 7.9637 138.024 8.38448 138.024 8.85202C138.024 9.65853 137.831 10.354 137.446 10.9384C137.072 11.5112 136.541 11.9553 135.853 12.2709C135.164 12.5748 134.359 12.7268 133.437 12.7268Z" fill="white"/>
</svg>
