<svg width="34" height="35" viewBox="0 0 34 35" fill="none" xmlns="http://www.w3.org/2000/svg">
<path d="M6.11816 21.0833V12.3833H3.11816V10.5833H11.1582V12.3833H8.06816V21.0833H6.11816Z" fill="black"/>
<path d="M13.0709 21.0833V10.5833H17.5409C18.2309 10.5833 18.8109 10.6833 19.2809 10.8833C19.7609 11.0833 20.1209 11.3833 20.3609 11.7833C20.6109 12.1733 20.7359 12.6483 20.7359 13.2083C20.7359 13.7883 20.5809 14.2783 20.2709 14.6783C19.9609 15.0783 19.5259 15.3533 18.9659 15.5033L18.9509 15.2033C19.4209 15.3033 19.8309 15.4833 20.1809 15.7433C20.5309 15.9933 20.8009 16.3083 20.9909 16.6883C21.1909 17.0583 21.2909 17.4833 21.2909 17.9633C21.2909 18.4733 21.2059 18.9233 21.0359 19.3133C20.8759 19.7033 20.6359 20.0283 20.3159 20.2883C19.9959 20.5483 19.6159 20.7483 19.1759 20.8883C18.7359 21.0183 18.2409 21.0833 17.6909 21.0833H13.0709ZM14.9759 19.3283H17.6009C17.9709 19.3283 18.2809 19.2733 18.5309 19.1633C18.7909 19.0533 18.9859 18.8933 19.1159 18.6833C19.2559 18.4633 19.3259 18.2033 19.3259 17.9033C19.3259 17.6233 19.2509 17.3833 19.1009 17.1833C18.9609 16.9833 18.7559 16.8333 18.4859 16.7333C18.2159 16.6233 17.8959 16.5683 17.5259 16.5683H14.9759V19.3283ZM14.9759 14.8883H17.3609C17.6509 14.8883 17.9009 14.8333 18.1109 14.7233C18.3309 14.6133 18.5009 14.4633 18.6209 14.2733C18.7409 14.0833 18.8009 13.8633 18.8009 13.6133C18.8009 13.2133 18.6659 12.9033 18.3959 12.6833C18.1259 12.4533 17.7309 12.3383 17.2109 12.3383H14.9759V14.8883Z" fill="black"/>
<path d="M26.728 21.2333C26.118 21.2333 25.558 21.1583 25.048 21.0083C24.538 20.8483 24.078 20.6133 23.668 20.3033C23.258 19.9933 22.893 19.6183 22.573 19.1783L23.848 17.7383C24.338 18.4183 24.818 18.8883 25.288 19.1483C25.758 19.4083 26.288 19.5383 26.878 19.5383C27.218 19.5383 27.528 19.4883 27.808 19.3883C28.088 19.2783 28.308 19.1333 28.468 18.9533C28.628 18.7633 28.708 18.5483 28.708 18.3083C28.708 18.1383 28.673 17.9833 28.603 17.8433C28.543 17.6933 28.448 17.5633 28.318 17.4533C28.188 17.3333 28.028 17.2233 27.838 17.1233C27.648 17.0233 27.433 16.9383 27.193 16.8683C26.953 16.7983 26.688 16.7333 26.398 16.6733C25.848 16.5633 25.368 16.4183 24.958 16.2383C24.548 16.0483 24.203 15.8183 23.923 15.5483C23.643 15.2683 23.438 14.9583 23.308 14.6183C23.178 14.2683 23.113 13.8733 23.113 13.4333C23.113 12.9933 23.208 12.5883 23.398 12.2183C23.598 11.8483 23.868 11.5283 24.208 11.2583C24.548 10.9883 24.943 10.7783 25.393 10.6283C25.843 10.4783 26.328 10.4033 26.848 10.4033C27.438 10.4033 27.963 10.4733 28.423 10.6133C28.893 10.7533 29.303 10.9633 29.653 11.2433C30.013 11.5133 30.308 11.8433 30.538 12.2333L29.248 13.5083C29.048 13.1983 28.823 12.9433 28.573 12.7433C28.323 12.5333 28.053 12.3783 27.763 12.2783C27.473 12.1683 27.168 12.1133 26.848 12.1133C26.488 12.1133 26.173 12.1633 25.903 12.2633C25.643 12.3633 25.438 12.5083 25.288 12.6983C25.138 12.8783 25.063 13.0983 25.063 13.3583C25.063 13.5583 25.108 13.7383 25.198 13.8983C25.288 14.0483 25.413 14.1833 25.573 14.3033C25.743 14.4233 25.958 14.5283 26.218 14.6183C26.478 14.7083 26.773 14.7883 27.103 14.8583C27.653 14.9683 28.148 15.1183 28.588 15.3083C29.028 15.4883 29.403 15.7083 29.713 15.9683C30.023 16.2183 30.258 16.5083 30.418 16.8383C30.578 17.1583 30.658 17.5183 30.658 17.9183C30.658 18.6083 30.493 19.2033 30.163 19.7033C29.843 20.1933 29.388 20.5733 28.798 20.8433C28.208 21.1033 27.518 21.2333 26.728 21.2333Z" fill="black"/>
<path fill-rule="evenodd" clip-rule="evenodd" d="M0 0H13.3333L17 2.75L20.6667 0H34V9H32V2H21.3333L17 5.25L12.6667 2H2V9H0V0ZM2 29V23H0V31H12.6667L17 34.25L21.3333 31H34V23H32V29H20.6667L17 31.75L13.3333 29H2Z" fill="#DC8B01"/>
</svg>
