<svg width="20" height="20" viewBox="0 0 20 20" fill="none" xmlns="http://www.w3.org/2000/svg">
<g id="import_contacts_FILL0_wght400_GRAD0_opsz48">
<path id="Vector" d="M5.16683 13.7497C5.9108 13.7497 6.63499 13.8365 7.33939 14.0101C8.04379 14.1837 8.73627 14.4441 9.41683 14.7913V5.89551C8.79183 5.47884 8.11392 5.15592 7.3831 4.92676C6.6523 4.69759 5.91354 4.58301 5.16683 4.58301C4.63905 4.58301 4.12169 4.64898 3.61475 4.78092C3.1078 4.91287 2.59739 5.07606 2.0835 5.27051V14.3122C2.51405 14.1177 3.00364 13.9754 3.55225 13.8851C4.10086 13.7948 4.63905 13.7497 5.16683 13.7497ZM10.6668 14.7913C11.3613 14.4441 12.0418 14.1837 12.7085 14.0101C13.3752 13.8365 14.0835 13.7497 14.8335 13.7497C15.3613 13.7497 15.9064 13.7913 16.4689 13.8747C17.0314 13.958 17.5141 14.0691 17.9168 14.208V5.27051C17.4446 5.0344 16.9458 4.86079 16.4205 4.74967C15.8952 4.63856 15.3662 4.58301 14.8335 4.58301C14.0835 4.58301 13.3578 4.69759 12.6564 4.92676C11.955 5.15592 11.2918 5.47884 10.6668 5.89551V14.7913ZM10.0418 16.6663C9.3335 16.1386 8.56266 15.7323 7.72933 15.4476C6.896 15.1629 6.04183 15.0205 5.16683 15.0205C4.65937 15.0205 4.16098 15.083 3.67166 15.208C3.18233 15.333 2.69461 15.4858 2.2085 15.6663C1.88766 15.8191 1.57829 15.7983 1.28037 15.6038C0.982454 15.4094 0.833496 15.1316 0.833496 14.7705V5.12467C0.833496 4.91634 0.882107 4.72537 0.979329 4.55176C1.07655 4.37815 1.22239 4.24273 1.41683 4.14551C2.00016 3.86773 2.60707 3.66287 3.23756 3.53092C3.86803 3.39898 4.51112 3.33301 5.16683 3.33301C6.04183 3.33301 6.89252 3.45106 7.71891 3.68717C8.5453 3.92329 9.31961 4.2844 10.0418 4.77051C10.7502 4.2844 11.5106 3.92329 12.3231 3.68717C13.1356 3.45106 13.9724 3.33301 14.8335 3.33301C15.4844 3.33301 16.1229 3.39898 16.7488 3.53092C17.3747 3.66287 17.9793 3.86773 18.5627 4.14551C18.7571 4.24273 18.9064 4.37815 19.0106 4.55176C19.1147 4.72537 19.1668 4.91634 19.1668 5.12467V14.7705C19.1668 15.1579 19.0106 15.4527 18.6981 15.6548C18.3856 15.8569 18.0766 15.8608 17.771 15.6663C17.2988 15.4719 16.818 15.3156 16.3287 15.1976C15.8393 15.0795 15.341 15.0205 14.8335 15.0205C13.9585 15.0205 13.1182 15.1663 12.3127 15.458C11.5071 15.7497 10.7502 16.1525 10.0418 16.6663Z" fill="#101010"/>
</g>
</svg>
