<svg width="139" height="49" viewBox="0 0 139 49" fill="none" xmlns="http://www.w3.org/2000/svg">
<path fill-rule="evenodd" clip-rule="evenodd" d="M9.4502 0H63.8735L69.0122 3.85966L74.1509 0H128.574V12.6316H125.771V2.80703H75.0852L69.0122 7.36844L62.9392 2.80703H12.2531V12.6316H9.4502V0ZM12.2531 40.7019V32.2808H9.4502V43.5089H62.9392L69.0122 48.0703L75.0852 43.5089H128.574V32.2808H125.771V40.7019H74.1509L69.0122 44.5615L63.8735 40.7019H12.2531Z" fill="#DC8B01"/>
<path d="M3.50142 28.5512V18.3822H0V16.2783H9.38381V18.3822H5.77734V28.5512H3.50142Z" fill="#101010"/>
<path d="M19.4769 28.5512V16.2783H21.7528V28.5512H19.4769ZM11.6162 28.5512V16.2783H13.8922V28.5512H11.6162ZM12.5616 23.5018V21.3628H20.5799V23.5018H12.5616Z" fill="#101010"/>
<path d="M25.0543 28.5512V16.2783H33.0726V18.3472H27.2952V26.4824H33.1426V28.5512H25.0543ZM26.1047 23.2914V21.2576H32.1797V23.2914H26.1047Z" fill="#101010"/>
<path d="M41.1424 28.5512V16.2783H46.3595C47.1648 16.2783 47.8418 16.3952 48.3903 16.6289C48.9505 16.8627 49.3707 17.2134 49.6508 17.6809C49.9426 18.1368 50.0885 18.692 50.0885 19.3465C50.0885 20.0245 49.9076 20.5972 49.5458 21.0647C49.184 21.5323 48.6763 21.8537 48.0227 22.029L48.0052 21.6784C48.5537 21.7953 49.0322 22.0057 49.4407 22.3096C49.8492 22.6018 50.1644 22.97 50.3861 23.4141C50.6196 23.8466 50.7363 24.3434 50.7363 24.9044C50.7363 25.5005 50.6371 26.0265 50.4387 26.4824C50.2519 26.9382 49.9718 27.3181 49.5983 27.622C49.2248 27.9259 48.7813 28.1597 48.2678 28.3233C47.7542 28.4752 47.1765 28.5512 46.5346 28.5512H41.1424ZM43.3658 26.4999H46.4295C46.8614 26.4999 47.2232 26.4356 47.515 26.307C47.8184 26.1784 48.046 25.9914 48.1977 25.746C48.3611 25.4888 48.4428 25.1849 48.4428 24.8343C48.4428 24.507 48.3553 24.2265 48.1802 23.9927C48.0168 23.7589 47.7776 23.5836 47.4624 23.4667C47.1473 23.3381 46.7738 23.2739 46.342 23.2739H43.3658V26.4999ZM43.3658 21.3102H46.1494C46.4879 21.3102 46.7797 21.2459 47.0248 21.1173C47.2815 20.9888 47.48 20.8134 47.62 20.5913C47.7601 20.3693 47.8301 20.1121 47.8301 19.8199C47.8301 19.3524 47.6725 18.99 47.3574 18.7329C47.0423 18.464 46.5812 18.3296 45.9743 18.3296H43.3658V21.3102Z" fill="#101010"/>
<path d="M53.0541 28.5512V26.5349V18.2945V16.2783H55.3301V18.2945V26.5349V28.5512H53.0541Z" fill="#101010"/>
<path d="M57.795 28.5512V16.2783H63.0121C63.8174 16.2783 64.4943 16.3951 65.0429 16.6289C65.6031 16.8627 66.0233 17.2133 66.3034 17.6809C66.5952 18.1367 66.7411 18.6919 66.7411 19.3465C66.7411 20.0244 66.5602 20.5972 66.1984 21.0647C65.8366 21.5322 65.3289 21.8537 64.6753 22.029L64.6577 21.6784C65.2063 21.7952 65.6848 22.0056 66.0933 22.3095C66.5018 22.6017 66.817 22.9699 67.0387 23.4141C67.2721 23.8466 67.3889 24.3433 67.3889 24.9044C67.3889 25.5005 67.2896 26.0265 67.0912 26.4823C66.9045 26.9382 66.6244 27.3181 66.2509 27.622C65.8774 27.9259 65.4339 28.1596 64.9204 28.3233C64.4068 28.4752 63.8291 28.5512 63.1872 28.5512H57.795ZM60.0184 26.4999H63.0821C63.514 26.4999 63.8758 26.4356 64.1675 26.307C64.471 26.1784 64.6986 25.9914 64.8503 25.746C65.0137 25.4888 65.0954 25.1849 65.0954 24.8342C65.0954 24.507 65.0079 24.2264 64.8328 23.9927C64.6694 23.7589 64.4302 23.5836 64.115 23.4667C63.7999 23.3381 63.4264 23.2738 62.9946 23.2738H60.0184V26.4999ZM60.0184 21.3102H62.802C63.1405 21.3102 63.4322 21.2459 63.6773 21.1173C63.9341 20.9887 64.1325 20.8134 64.2726 20.5913C64.4126 20.3692 64.4827 20.1121 64.4827 19.8199C64.4827 19.3523 64.3251 18.99 64.01 18.7328C63.6949 18.464 63.2338 18.3296 62.6269 18.3296H60.0184V21.3102Z" fill="#101010"/>
<path d="M69.8482 28.5512V16.2783H72.1241V26.4473H77.7789V28.5512H69.8482Z" fill="#101010"/>
<path d="M80.3798 28.5512V16.2783H88.3981V18.3471H82.6207V26.4823H88.4681V28.5512H80.3798ZM81.4302 23.2914V21.2576H87.5052V23.2914H81.4302Z" fill="#101010"/>
<path d="M100.354 28.7265C99.6425 28.7265 98.9889 28.6389 98.3937 28.4635C97.7984 28.2765 97.2615 28.0018 96.783 27.6395C96.3045 27.2771 95.8785 26.8388 95.505 26.3245L96.9931 24.6414C97.565 25.4362 98.1252 25.9856 98.6738 26.2895C99.2223 26.5934 99.8409 26.7453 100.53 26.7453C100.926 26.7453 101.288 26.6869 101.615 26.57C101.942 26.4414 102.199 26.2719 102.385 26.0615C102.572 25.8395 102.665 25.5882 102.665 25.3076C102.665 25.1089 102.625 24.9278 102.543 24.7641C102.473 24.5888 102.362 24.4368 102.21 24.3083C102.058 24.168 101.872 24.0394 101.65 23.9225C101.428 23.8057 101.177 23.7063 100.897 23.6245C100.617 23.5427 100.308 23.4667 99.9693 23.3966C99.3274 23.268 98.7671 23.0985 98.2886 22.8881C97.8101 22.666 97.4074 22.3972 97.0806 22.0816C96.7538 21.7543 96.5146 21.392 96.3628 20.9946C96.2111 20.5855 96.1352 20.1238 96.1352 19.6095C96.1352 19.0952 96.2461 18.6218 96.4679 18.1893C96.7013 17.7569 97.0164 17.3828 97.4133 17.0672C97.8101 16.7516 98.2711 16.5062 98.7963 16.3309C99.3215 16.1555 99.8876 16.0679 100.495 16.0679C101.183 16.0679 101.796 16.1497 102.333 16.3133C102.881 16.477 103.36 16.7224 103.768 17.0497C104.189 17.3653 104.533 17.751 104.801 18.2069L103.296 19.6972C103.062 19.3348 102.8 19.0368 102.508 18.803C102.216 18.5575 101.901 18.3763 101.562 18.2595C101.224 18.1309 100.868 18.0666 100.495 18.0666C100.074 18.0666 99.7067 18.125 99.3916 18.2419C99.0881 18.3588 98.8489 18.5283 98.6738 18.7504C98.4987 18.9608 98.4112 19.2179 98.4112 19.5218C98.4112 19.7556 98.4637 19.966 98.5687 20.153C98.6738 20.3283 98.8197 20.4861 99.0064 20.6264C99.2048 20.7666 99.4558 20.8894 99.7592 20.9946C100.063 21.0998 100.407 21.1933 100.792 21.2751C101.434 21.4037 102.012 21.579 102.525 21.8011C103.039 22.0115 103.477 22.2686 103.838 22.5725C104.2 22.8647 104.474 23.2037 104.661 23.5894C104.848 23.9635 104.941 24.3842 104.941 24.8518C104.941 25.6583 104.749 26.3538 104.364 26.9382C103.99 27.5109 103.459 27.9551 102.77 28.2707C102.082 28.5746 101.276 28.7265 100.354 28.7265Z" fill="#101010"/>
<path d="M106.078 28.5512L110.858 16.2783H112.994L117.738 28.5512H115.375L112.749 21.5732C112.69 21.4329 112.609 21.2108 112.504 20.9069C112.41 20.603 112.305 20.2757 112.188 19.9251C112.072 19.5627 111.967 19.2296 111.873 18.9257C111.78 18.6101 111.71 18.3822 111.663 18.2419L112.101 18.2244C112.031 18.4582 111.949 18.7212 111.856 19.0134C111.762 19.3056 111.663 19.6095 111.558 19.9251C111.453 20.2407 111.348 20.5446 111.243 20.8368C111.15 21.129 111.062 21.392 110.98 21.6258L108.354 28.5512H106.078ZM108.249 25.746L109.037 23.7647H114.622L115.462 25.746H108.249Z" fill="#101010"/>
<path d="M121.523 28.5512V22.4323L121.645 23.2914L116.691 16.2783H119.352L123.133 21.7134L122.31 21.6608L125.724 16.2783H128.28L123.536 23.4842L123.799 22.292V28.5512H121.523Z" fill="#101010"/>
<path d="M133.437 28.7265C132.725 28.7265 132.071 28.6389 131.476 28.4635C130.881 28.2765 130.344 28.0018 129.865 27.6395C129.387 27.2771 128.961 26.8388 128.587 26.3245L130.075 24.6414C130.647 25.4362 131.207 25.9856 131.756 26.2895C132.305 26.5934 132.923 26.7453 133.612 26.7453C134.009 26.7453 134.37 26.6869 134.697 26.57C135.024 26.4414 135.281 26.2719 135.468 26.0615C135.654 25.8395 135.748 25.5882 135.748 25.3076C135.748 25.1089 135.707 24.9278 135.625 24.7641C135.555 24.5888 135.444 24.4368 135.292 24.3083C135.141 24.168 134.954 24.0394 134.732 23.9225C134.511 23.8057 134.26 23.7063 133.979 23.6245C133.699 23.5427 133.39 23.4667 133.052 23.3966C132.41 23.268 131.849 23.0985 131.371 22.8881C130.892 22.666 130.49 22.3972 130.163 22.0816C129.836 21.7543 129.597 21.392 129.445 20.9946C129.293 20.5855 129.218 20.1238 129.218 19.6095C129.218 19.0952 129.328 18.6218 129.55 18.1893C129.784 17.7569 130.099 17.3828 130.496 17.0672C130.892 16.7516 131.353 16.5062 131.879 16.3309C132.404 16.1555 132.97 16.0679 133.577 16.0679C134.265 16.0679 134.878 16.1497 135.415 16.3133C135.964 16.477 136.442 16.7224 136.851 17.0497C137.271 17.3653 137.615 17.751 137.884 18.2069L136.378 19.6972C136.144 19.3348 135.882 19.0368 135.59 18.803C135.298 18.5575 134.983 18.3763 134.645 18.2595C134.306 18.1309 133.95 18.0666 133.577 18.0666C133.157 18.0666 132.789 18.125 132.474 18.2419C132.17 18.3588 131.931 18.5283 131.756 18.7504C131.581 18.9608 131.493 19.2179 131.493 19.5218C131.493 19.7556 131.546 19.966 131.651 20.153C131.756 20.3283 131.902 20.4861 132.089 20.6264C132.287 20.7666 132.538 20.8894 132.841 20.9946C133.145 21.0998 133.489 21.1933 133.874 21.2751C134.516 21.4037 135.094 21.579 135.608 21.8011C136.121 22.0115 136.559 22.2686 136.921 22.5725C137.282 22.8647 137.557 23.2037 137.743 23.5894C137.93 23.9635 138.024 24.3842 138.024 24.8518C138.024 25.6583 137.831 26.3538 137.446 26.9382C137.072 27.5109 136.541 27.9551 135.853 28.2707C135.164 28.5746 134.359 28.7265 133.437 28.7265Z" fill="#101010"/>
</svg>
