<svg width="139" height="49" viewBox="0 0 139 49" fill="none" xmlns="http://www.w3.org/2000/svg">
<path fill-rule="evenodd" clip-rule="evenodd" d="M9.44995 0.996582H63.8733L69.012 4.8506L74.1507 0.996582H128.574V13.6097H125.771V3.7995H75.085L69.012 8.35425L62.939 3.7995H12.2529V13.6097H9.44995V0.996582ZM12.2529 41.6389V33.2302H9.44995V44.4418H62.939L69.012 48.9966L75.085 44.4418H128.574V33.2302H125.771V41.6389H74.1507L69.012 45.4929L63.8733 41.6389H12.2529Z" fill="#DC8B01"/>
<path d="M3.50142 29.5061V19.352H0V17.2511H9.38381V19.352H5.77734V29.5061H3.50142Z" fill="white"/>
<path d="M19.4769 29.5061V17.2511H21.7528V29.5061H19.4769ZM11.6162 29.5061V17.2511H13.8922V29.5061H11.6162ZM12.5616 24.4641V22.3282H20.5799V24.4641H12.5616Z" fill="white"/>
<path d="M25.0543 29.5061V17.2511H33.0726V19.317H27.2952V27.4403H33.1426V29.5061H25.0543ZM26.1047 24.254V22.2231H32.1797V24.254H26.1047Z" fill="white"/>
<path d="M41.1424 29.5061V17.2511H46.3595C47.1648 17.2511 47.8418 17.3678 48.3903 17.6013C48.9505 17.8347 49.3707 18.1848 49.6508 18.6517C49.9426 19.1069 50.0885 19.6613 50.0885 20.3149C50.0885 20.9918 49.9076 21.5637 49.5458 22.0306C49.184 22.4974 48.6763 22.8184 48.0227 22.9935L48.0052 22.6433C48.5537 22.76 49.0322 22.9701 49.4407 23.2736C49.8492 23.5654 50.1644 23.933 50.3861 24.3765C50.6196 24.8084 50.7363 25.3044 50.7363 25.8646C50.7363 26.4599 50.6371 26.9851 50.4387 27.4403C50.2519 27.8954 49.9718 28.2748 49.5983 28.5782C49.2248 28.8817 48.7813 29.1151 48.2678 29.2785C47.7542 29.4302 47.1765 29.5061 46.5346 29.5061H41.1424ZM43.3658 27.4578H46.4295C46.8614 27.4578 47.2232 27.3936 47.515 27.2652C47.8184 27.1368 48.046 26.9501 48.1977 26.705C48.3611 26.4482 48.4428 26.1447 48.4428 25.7946C48.4428 25.4678 48.3553 25.1877 48.1802 24.9543C48.0168 24.7208 47.7776 24.5458 47.4624 24.429C47.1473 24.3007 46.7738 24.2365 46.342 24.2365H43.3658V27.4578ZM43.3658 22.2757H46.1494C46.4879 22.2757 46.7797 22.2115 47.0248 22.0831C47.2815 21.9547 47.48 21.7796 47.62 21.5579C47.7601 21.3361 47.8301 21.0793 47.8301 20.7876C47.8301 20.3207 47.6725 19.9589 47.3574 19.7021C47.0423 19.4337 46.5812 19.2995 45.9743 19.2995H43.3658V22.2757Z" fill="white"/>
<path d="M53.0541 29.5061V27.4928V19.2644V17.2511H55.3301V19.2644V27.4928V29.5061H53.0541Z" fill="white"/>
<path d="M57.795 29.5061V17.2511H63.0121C63.8174 17.2511 64.4943 17.3678 65.0429 17.6012C65.6031 17.8347 66.0233 18.1848 66.3034 18.6517C66.5952 19.1069 66.7411 19.6612 66.7411 20.3148C66.7411 20.9918 66.5602 21.5637 66.1984 22.0305C65.8366 22.4974 65.3289 22.8184 64.6753 22.9934L64.6577 22.6433C65.2063 22.76 65.6848 22.9701 66.0933 23.2735C66.5018 23.5653 66.817 23.933 67.0387 24.3765C67.2721 24.8083 67.3889 25.3044 67.3889 25.8646C67.3889 26.4598 67.2896 26.9851 67.0912 27.4402C66.9045 27.8954 66.6244 28.2747 66.2509 28.5782C65.8774 28.8817 65.4339 29.1151 64.9204 29.2785C64.4068 29.4302 63.8291 29.5061 63.1872 29.5061H57.795ZM60.0184 27.4577H63.0821C63.514 27.4577 63.8758 27.3936 64.1675 27.2652C64.471 27.1368 64.6986 26.95 64.8503 26.7049C65.0137 26.4482 65.0954 26.1447 65.0954 25.7946C65.0954 25.4678 65.0079 25.1877 64.8328 24.9542C64.6694 24.7208 64.4302 24.5457 64.115 24.429C63.7999 24.3006 63.4264 24.2364 62.9946 24.2364H60.0184V27.4577ZM60.0184 22.2756H62.802C63.1405 22.2756 63.4322 22.2114 63.6773 22.0831C63.9341 21.9547 64.1325 21.7796 64.2726 21.5578C64.4126 21.3361 64.4827 21.0793 64.4827 20.7875C64.4827 20.3207 64.3251 19.9589 64.01 19.7021C63.6949 19.4337 63.2338 19.2994 62.6269 19.2994H60.0184V22.2756Z" fill="white"/>
<path d="M69.8482 29.5061V17.2511H72.1241V27.4052H77.7789V29.5061H69.8482Z" fill="white"/>
<path d="M80.3798 29.5061V17.2511H88.3981V19.3169H82.6207V27.4402H88.4681V29.5061H80.3798ZM81.4302 24.2539V22.2231H87.5052V24.2539H81.4302Z" fill="white"/>
<path d="M100.354 29.6811C99.6425 29.6811 98.9889 29.5936 98.3937 29.4185C97.7984 29.2318 97.2615 28.9575 96.783 28.5957C96.3045 28.2339 95.8785 27.7962 95.505 27.2827L96.9931 25.602C97.565 26.3956 98.1252 26.9442 98.6738 27.2477C99.2223 27.5511 99.8409 27.7028 100.53 27.7028C100.926 27.7028 101.288 27.6445 101.615 27.5278C101.942 27.3994 102.199 27.2302 102.385 27.0201C102.572 26.7983 102.665 26.5474 102.665 26.2673C102.665 26.0688 102.625 25.8879 102.543 25.7245C102.473 25.5495 102.362 25.3977 102.21 25.2694C102.058 25.1293 101.872 25.0009 101.65 24.8842C101.428 24.7675 101.177 24.6683 100.897 24.5866C100.617 24.5049 100.308 24.429 99.9693 24.359C99.3274 24.2306 98.7671 24.0614 98.2886 23.8513C97.8101 23.6295 97.4074 23.3611 97.0806 23.046C96.7538 22.7192 96.5146 22.3573 96.3628 21.9605C96.2111 21.552 96.1352 21.091 96.1352 20.5775C96.1352 20.0639 96.2461 19.5912 96.4679 19.1594C96.7013 18.7275 97.0164 18.354 97.4133 18.0389C97.8101 17.7238 98.2711 17.4787 98.7963 17.3036C99.3215 17.1286 99.8876 17.041 100.495 17.041C101.183 17.041 101.796 17.1227 102.333 17.2861C102.881 17.4495 103.36 17.6946 103.768 18.0214C104.189 18.3365 104.533 18.7217 104.801 19.1769L103.296 20.665C103.062 20.3032 102.8 20.0056 102.508 19.7721C102.216 19.527 101.901 19.3461 101.562 19.2294C101.224 19.101 100.868 19.0368 100.495 19.0368C100.074 19.0368 99.7067 19.0952 99.3916 19.2119C99.0881 19.3286 98.8489 19.4978 98.6738 19.7196C98.4987 19.9297 98.4112 20.1865 98.4112 20.4899C98.4112 20.7233 98.4637 20.9334 98.5687 21.1202C98.6738 21.2952 98.8197 21.4528 99.0064 21.5929C99.2048 21.7329 99.4558 21.8555 99.7592 21.9605C100.063 22.0656 100.407 22.1589 100.792 22.2406C101.434 22.369 102.012 22.5441 102.525 22.7658C103.039 22.9759 103.477 23.2327 103.838 23.5362C104.2 23.8279 104.474 24.1664 104.661 24.5516C104.848 24.925 104.941 25.3452 104.941 25.8121C104.941 26.6174 104.749 27.3119 104.364 27.8954C103.99 28.4673 103.459 28.9108 102.77 29.226C102.082 29.5294 101.276 29.6811 100.354 29.6811Z" fill="white"/>
<path d="M106.078 29.5061L110.858 17.2511H112.994L117.738 29.5061H115.375L112.749 22.5382C112.69 22.3982 112.609 22.1764 112.504 21.873C112.41 21.5695 112.305 21.2427 112.188 20.8926C112.072 20.5308 111.967 20.1981 111.873 19.8947C111.78 19.5795 111.71 19.352 111.663 19.2119L112.101 19.1944C112.031 19.4278 111.949 19.6904 111.856 19.9822C111.762 20.274 111.663 20.5775 111.558 20.8926C111.453 21.2077 111.348 21.5112 111.243 21.8029C111.15 22.0947 111.062 22.3573 110.98 22.5908L108.354 29.5061H106.078ZM108.249 26.7049L109.037 24.7266H114.622L115.462 26.7049H108.249Z" fill="white"/>
<path d="M121.523 29.5061V23.3961L121.645 24.2539L116.691 17.2511H119.352L123.133 22.6783L122.31 22.6258L125.724 17.2511H128.28L123.536 24.4465L123.799 23.256V29.5061H121.523Z" fill="white"/>
<path d="M133.437 29.6811C132.725 29.6811 132.071 29.5936 131.476 29.4185C130.881 29.2318 130.344 28.9575 129.865 28.5957C129.387 28.2339 128.961 27.7962 128.587 27.2827L130.075 25.602C130.647 26.3956 131.207 26.9442 131.756 27.2477C132.305 27.5511 132.923 27.7028 133.612 27.7028C134.009 27.7028 134.37 27.6445 134.697 27.5278C135.024 27.3994 135.281 27.2302 135.468 27.0201C135.654 26.7983 135.748 26.5474 135.748 26.2673C135.748 26.0688 135.707 25.8879 135.625 25.7245C135.555 25.5495 135.444 25.3977 135.292 25.2694C135.141 25.1293 134.954 25.0009 134.732 24.8842C134.511 24.7675 134.26 24.6683 133.979 24.5866C133.699 24.5049 133.39 24.429 133.052 24.359C132.41 24.2306 131.849 24.0614 131.371 23.8513C130.892 23.6295 130.49 23.3611 130.163 23.046C129.836 22.7192 129.597 22.3573 129.445 21.9605C129.293 21.552 129.218 21.091 129.218 20.5775C129.218 20.0639 129.328 19.5912 129.55 19.1594C129.784 18.7275 130.099 18.354 130.496 18.0389C130.892 17.7238 131.353 17.4787 131.879 17.3036C132.404 17.1286 132.97 17.041 133.577 17.041C134.265 17.041 134.878 17.1227 135.415 17.2861C135.964 17.4495 136.442 17.6946 136.851 18.0214C137.271 18.3365 137.615 18.7217 137.884 19.1769L136.378 20.665C136.144 20.3032 135.882 20.0056 135.59 19.7721C135.298 19.527 134.983 19.3461 134.645 19.2294C134.306 19.101 133.95 19.0368 133.577 19.0368C133.157 19.0368 132.789 19.0952 132.474 19.2119C132.17 19.3286 131.931 19.4978 131.756 19.7196C131.581 19.9297 131.493 20.1865 131.493 20.4899C131.493 20.7233 131.546 20.9334 131.651 21.1202C131.756 21.2952 131.902 21.4528 132.089 21.5929C132.287 21.7329 132.538 21.8555 132.841 21.9605C133.145 22.0656 133.489 22.1589 133.874 22.2406C134.516 22.369 135.094 22.5441 135.608 22.7658C136.121 22.9759 136.559 23.2327 136.921 23.5362C137.282 23.8279 137.557 24.1664 137.743 24.5516C137.93 24.925 138.024 25.3452 138.024 25.8121C138.024 26.6174 137.831 27.3119 137.446 27.8954C137.072 28.4673 136.541 28.9108 135.853 29.226C135.164 29.5294 134.359 29.6811 133.437 29.6811Z" fill="white"/>
</svg>
