<svg width="24" height="24" viewBox="0 0 24 24" fill="none" xmlns="http://www.w3.org/2000/svg">
<path d="M21.9 0.150011L15 2.85001L9.6 0.150011C9.3 1.1161e-05 8.85 1.1161e-05 8.4 0.150011L0.9 3.15001C0.3 3.30001 0 3.90001 0 4.50001V22.5C0 23.55 1.05 24.3 2.1 23.85L9 21.15L14.4 23.85C14.85 24 15.15 24 15.6 23.85L23.1 21C23.7 20.85 24 20.25 24 19.65V1.50001C24 0.450011 22.95 -0.299989 21.9 0.150011ZM10.5 3.90001L13.5 5.40001V20.1L10.5 18.6V3.90001ZM3 5.55001L7.5 3.75001V18.45L3 20.25V5.55001ZM21 18.6L16.5 20.25V5.55001L21 3.75001V18.6Z" fill="white"/>
</svg>
