<svg width="20" height="20" viewBox="0 0 20 20" fill="none" xmlns="http://www.w3.org/2000/svg">
<g id="view_timeline_FILL0_wght400_GRAD0_opsz48">
<path id="Vector" d="M5.20833 14.1875H9.79167V12.9375H5.20833V14.1875ZM7.70833 10.625H12.2917V9.375H7.70833V10.625ZM10.2083 7.0625H14.7917V5.8125H10.2083V7.0625ZM3.75 17.5C3.41667 17.5 3.125 17.375 2.875 17.125C2.625 16.875 2.5 16.5833 2.5 16.25V3.75C2.5 3.41667 2.625 3.125 2.875 2.875C3.125 2.625 3.41667 2.5 3.75 2.5H16.25C16.5833 2.5 16.875 2.625 17.125 2.875C17.375 3.125 17.5 3.41667 17.5 3.75V16.25C17.5 16.5833 17.375 16.875 17.125 17.125C16.875 17.375 16.5833 17.5 16.25 17.5H3.75ZM3.75 16.25H16.25V3.75H3.75V16.25Z" fill="#101010"/>
</g>
</svg>
